<svg version="1.2" xmlns="http://www.w3.org/2000/svg" viewBox="0 0 1000 1000" width="1000" height="1000">
	<title>image</title>
	<style>
		.s0 { fill: #d8d6d1 } 
		.s1 { fill: #cbc2c5 } 
		.s2 { fill: #bcb8c2 } 
		.s3 { fill: #7f7d7e } 
	</style>
	<g id="Background">
		<path id="Path 1" class="s0" d="m433.5 61.7c-1.6 0.2-10 1.7-18.5 3.4-8.5 1.6-19.8 4.1-25 5.5-5.2 1.4-15.1 4.1-22 6.1-6.9 2-17.2 5.3-23 7.5-5.8 2.2-14.8 5.8-20 8-5.2 2.2-14.2 6.2-20 9-5.8 2.7-16.6 8.4-24 12.5-7.4 4.2-17.6 10.2-22.5 13.4-4.9 3.3-9.9 6.5-10.9 7.1-1 0.7-4.6 3.3-8 5.7-3.4 2.5-7.6 5.6-9.5 7-1.8 1.4-5.7 4.4-8.6 6.6-2.8 2.2-8.2 6.7-12 10-3.8 3.3-8 7.1-9.4 8.3-1.4 1.3-4.6 4.3-7.1 6.7-2.5 2.3-9 8.9-14.6 14.6-5.5 5.7-14.9 16.2-20.8 23.4-5.8 7.2-15.2 19.3-20.8 27-5.6 7.7-12.1 17.3-14.5 21.3-2.4 3.9-4.3 7.9-4.3 8.7 0 0.8-0.5 1.5-1 1.5-0.5 0-1 0.7-1 1.5 0 0.8-0.4 1.6-0.9 1.7-0.5 0.2-4.2 6.8-8.4 14.8-4.1 8-10.2 20.8-13.5 28.5-3.2 7.7-6.9 16.7-8.1 20-1.3 3.3-4.3 12.1-6.7 19.5-2.5 7.4-6 19.4-7.8 26.5-1.8 7.1-3.8 15.2-4.4 18-0.6 2.7-2 9.9-3.1 16-1.1 6.1-2.7 16.4-3.5 23-0.8 6.6-2 19.4-2.7 28.5-0.7 9.9-0.9 25.1-0.5 38 0.3 11.8 1 25.8 1.6 31 0.5 5.2 1.2 11.7 1.5 14.5 0.3 2.7 1.5 10.4 2.6 17 1.1 6.6 2.8 16 3.9 21 1 5 2.3 10.1 2.8 11.5l1 2.5c1-4.5 1.8-5.5 3-5.5 0.9 0.1 2.3-0.5 2.9-1.2 0.7-0.7 1.4-4 1.6-7.3l0.3-6c12.3-4.2 20.4-6.1 25.9-7 5.5-0.8 15-2.4 21-3.4 6.9-1.2 11.7-1.5 12.8-1 0.9 0.5 2.6 0.9 3.7 0.9 1.1 0 2.9-0.9 4-2 1.1-1.1 4.1-2.5 6.8-3.1 2.6-0.5 8.3-2.1 12.7-3.4 4.4-1.4 10.3-2.9 13-3.4 4.1-0.7 5.4-0.6 7.3 0.8 2.1 1.5 2.4 1.5 4.5-0.6 1.2-1.2 4-2.5 6.2-2.9 2.2-0.4 6.5-1.5 9.5-2.6 3-1 12.7-3.4 21.5-5.3 11.5-2.4 16.6-3.1 18.3-2.4 1.5 0.6 4.3 0.4 8.7-0.6 3.6-0.8 7.7-2.1 9.3-2.9 1.5-0.8 9.9-3 18.7-4.9 8.8-2 18-3.9 20.5-4.2 2.5-0.4 8.3-1.6 13-2.7 8.5-1.9 8.5-2 16-9.6 4.1-4.2 7.8-7.7 8.2-7.7 0.3 0 1-0.3 1.4-0.8 0.4-0.4 0.1-0.7-0.6-0.7-0.9 0-1.1-0.4-0.5-1 0.6-0.5 2.5-1.4 4.3-2 2.6-0.8 3.2-0.7 3.2 0.5 0 0.9 0.9 1.5 2.3 1.5 2.1 0 2.2-0.2 1.5-6-0.5-3.8-0.4-6 0.2-6 0.6 0 1.2-0.8 1.5-1.8 0.2-0.9 0.9-7.6 1.5-14.7 0.6-7.1 2.2-17.5 3.5-23 1.3-5.5 3.6-13.1 5.1-17 1.4-3.9 3.4-8.6 4.5-10.5 1-1.9 1.8-2.9 1.9-2.3 0 0.7-0.9 3.2-2 5.5-1.1 2.4-3 7.4-4.4 11.3-1.3 3.9-3.2 10.8-4.2 15.5-1.5 6.8-1.9 12.5-1.8 28.5 0 17.8 0.3 20.8 2.3 27.5 1.2 4.1 2.9 9.5 3.8 12 0.8 2.5 2.3 6.1 3.4 8 1 1.9 1.8 4.1 1.9 4.7 0 0.7 0.8 2.5 1.8 4 1 1.6 2.6 4.9 3.5 7.5 0.9 2.7 2.1 4.8 2.7 4.8 0.6 0 1.3 1 1.6 2.2 0.4 1.3 2.1 4.1 3.8 6.3 1.7 2.2 3.3 4.2 3.6 4.5 0.3 0.3 1.4 2.3 2.5 4.5 1 2.2 3.7 5.8 6.1 8 2.3 2.2 5.4 4.8 6.8 5.7 1.4 1 2.6 2.4 2.6 3 0.1 0.7 2.8 3.3 6 5.8 3.3 2.5 7.2 5.5 8.8 6.7 1.5 1.2 4.3 3.1 6.2 4.1 1.9 1 5.2 2.9 7.3 4 2 1.2 4.4 2.2 5.2 2.2 0.8 0 3.6 0.9 6.3 2.1 2.6 1.1 5.6 2.4 6.7 2.9 1.1 0.5 4 1.5 6.5 2.4 2.5 0.8 5.9 1.8 7.5 2.2 1.6 0.4 3.9 0.9 5 1.1 1.1 0.2 5.1 1.1 9 1.9 3.9 0.8 12.9 1.8 20 2.1 7.2 0.3 17.2 0.1 22.5-0.5 5.2-0.6 13.1-2 17.5-3 4.4-1.1 11.8-3.3 16.5-4.9 4.7-1.7 10.8-4.2 13.5-5.5 2.8-1.4 5.6-2.4 6.3-2.2 0.6 0.2 1.9-0.3 2.7-1.1 0.8-0.8 1.5-2.1 1.5-2.8 0-0.6 1.1-1.8 2.5-2.5 1.4-0.6 2.5-1.7 2.5-2.2 0-0.6 0.8-0.7 1.8-0.3 1 0.5 1.4 0.4 1-0.2-0.4-0.6 0.6-1.8 2.3-2.8 1.6-0.9 3.4-1.5 3.9-1.2 0.5 0.3 1.6-0.2 2.3-1 0.6-0.9 2-1.6 3-1.5 0.9 0 1.7-0.5 1.7-1 0-0.5 0.7-0.8 1.5-0.5 0.9 0.3 1.8-0.3 2.1-1.3 0.3-0.9 0.8-2.4 1.2-3.2 0.3-0.8 0.4-1.8 0.4-2.3-0.1-0.4 1.4-1.7 3.4-3 2-1.2 4.2-3.3 4.9-4.7 0.7-1.4 2.6-4 4.4-5.8 1.7-1.7 2.9-3.7 2.6-4.2-0.3-0.5 0.5-1.9 1.8-3 1.4-1.3 1.9-2.5 1.5-3.5-0.5-0.9-0.3-1.5 0.5-1.5 0.6 0 0.9-0.3 0.5-0.7-0.4-0.5 0-1.5 1-2.3 0.9-0.8 3.1-4.2 4.7-7.5 1.6-3.3 3.5-7.6 4.3-9.5 0.7-1.9 2.7-7.3 4.3-12 2.8-8 3-8.2 2.4-3.5-0.3 2.7-1.7 8.1-3.1 12-1.5 3.9-2.7 8-2.8 9.1 0 1.2-0.9 3-1.8 4-1 1.1-1.8 2.7-1.8 3.6 0 1-0.9 3.5-1.9 5.5-1.1 2.1-2.7 4.1-3.5 4.5-0.9 0.5-1.6 1.8-1.6 3-0.1 2.1 0.1 2.2 1.7 0.7 1-0.9 2.4-1.5 3.1-1.3 0.6 0.2 1.4-0.5 1.7-1.6 0.4-1.8 0.7-1.8 2-0.5 0.8 0.8 2 1.3 2.5 1 0.5-0.3 1.5 0.1 2 0.7 0.6 0.7 0.9 2.9 0.7 4.8-0.2 1.9-1.9 6.6-3.8 10.4-1.9 3.8-4.8 8.5-6.5 10.5-1.7 2-7.3 6.5-12.5 10.1-5.2 3.5-13.2 9.5-17.9 13.3-4.7 3.7-12.3 9.4-17 12.4-4.7 3.1-10 7-11.9 8.7-1.9 1.7-5.3 4.9-7.5 7.2-2.3 2.2-6.3 5.3-9.1 6.9-2.7 1.6-7 3.5-9.5 4.2-3 0.9-6.4 1.1-10.5 0.6-3.3-0.4-6.6-1.3-7.2-2-0.9-0.9-3.3-1.2-7.5-0.9-3.5 0.2-8.8 0.5-11.8 0.7-3 0.1-4.4 0.4-3 0.6 1.9 0.4 0.6 1.2-6 3.4-4.7 1.6-11.6 3.8-15.5 4.9-3.9 1.1-8 2.2-9.2 2.5-1.7 0.4-2.4 1.4-2.7 3.7-0.3 1.8-1 6.4-1.6 10.3-0.6 3.9-1.7 11-2.5 16-0.7 5-2.7 15.1-4.4 22.5-1.6 7.4-3.4 17.3-4 22-0.6 4.7-2.2 17.7-3.7 29-1.4 11.3-3.2 23.2-3.9 26.5-0.8 3.3-1.6 7.4-1.8 9-0.3 1.6-1.2 5.5-2.1 8.5-1.2 3.9-1.6 9-1.4 17.5 0.1 7.6-0.3 12.8-1 14.2-0.8 1.5-0.9 3.5-0.4 5.5 0.5 2.1 0.3 5.4-0.5 8.8-0.7 3-2.2 6.7-3.3 8.2-1.6 2.2-2 4.3-2 10.3 0 5.2-1 11.2-3.2 19.7-1.8 6.8-3.6 12.4-4 12.5-0.4 0.2-0.8 1-0.8 1.8 0 1.1-0.7 1.4-2.5 1-1.4-0.3-2.7 0-3 0.5-0.3 0.5-2.5 1-5 1-2.5 0-4.5 0.5-4.5 1 0 0.5-0.9 1-1.9 1-1.1 0-2.7 0.8-3.6 1.8-1.6 1.6-1.5 1.8 1.2 3.4 1.5 0.9 8 2.6 14.3 3.8 6.3 1.1 16.9 2.7 23.5 3.5 6.6 0.8 19.9 1.9 29.5 2.6 12.8 0.8 24.2 0.8 42.5 0 15.9-0.7 31.4-2 42.5-3.7 9.6-1.4 21.8-3.4 27-4.5 5.2-1.1 13.3-2.9 18-4 4.7-1.1 11.6-2.9 15.5-4.1 3.9-1.1 11.7-3.6 17.5-5.5 5.8-1.9 11.9-4 13.5-4.7 1.6-0.8 6.8-2.8 11.5-4.6 4.7-1.8 13.6-5.6 19.8-8.6 6.1-3 11.9-5.4 12.7-5.4 0.8 0 1.5-0.3 1.5-0.8 0-0.4 5.3-3.4 11.7-6.7 6.5-3.3 12.2-6.5 12.8-7.1 0.5-0.6 4.4-3.1 8.5-5.6 4.1-2.6 11.3-7.3 16-10.6 4.7-3.4 9-6.4 9.5-6.9 0.5-0.5 3.9-3.1 7.5-5.8 3.6-2.7 10.5-8.3 15.5-12.4 5-4.1 16.7-15.2 26.1-24.6 9.4-9.3 21.3-22 26.4-28 5.1-6 13-16 17.5-22 4.5-6 11.8-16.4 16.2-23 4.4-6.6 10.9-17.2 14.6-23.5 3.6-6.3 9.2-17.1 12.5-24 3.3-6.9 7.4-15.5 9.1-19.3 1.7-3.7 3.1-7 3.1-7.5 0-0.4 0.9-3 2.2-5.7 1.2-2.8 2.3-5.5 2.4-6 0.2-0.5 1.9-5.3 3.9-10.5 2-5.2 5.1-14.7 6.9-21 1.9-6.3 4.6-16 6-21.5 1.4-5.5 3.6-15.6 5-22.5 1.3-6.9 3.2-17.2 4-23 0.9-5.8 2-16.6 2.6-24 0.5-7.4 1-23.4 1-35.5 0-12.1-0.7-29.6-1.5-39-0.8-9.4-2.2-21.7-3.1-27.5-0.8-5.8-2.9-17-4.6-25-1.7-8-3.2-15.5-3.4-16.8l-0.4-2.2c-3.5 3.1-5.3 4-6.2 4-1 0-1.8 0.6-1.8 1.2 0 0.7-2 1.9-4.5 2.5-2.5 0.7-6.1 1.3-8 1.3-1.9 0-6.8 0.7-10.7 1.5-4 0.9-10 2.6-13.3 3.9-3.3 1.3-9.1 2.9-13 3.5-3.9 0.7-11.3 2.5-16.5 4.1-5.2 1.6-16.9 4.7-26 6.9-9.1 2.1-19.6 4.7-23.5 5.6-3.9 1-10.6 2.6-15 3.5-4.4 1-13 3.2-19 5-6 1.7-13.9 3.8-17.5 4.6-3.6 0.8-11 2.8-16.5 4.4-5.5 1.5-21 5.8-34.5 9.4-13.5 3.6-28.3 7-33 7.5-4.7 0.6-9.9 1.3-11.5 1.7-1.8 0.4-4 0.1-5.5-0.7-1.4-0.7-3.3-1.3-4.2-1.3-1-0.1-1.8 0.6-1.8 1.4 0 0.8-0.3 1.2-0.7 0.7-0.5-0.4-1.6 0.1-2.6 1-1.8 1.7-1.8 1.7-1.1-1.2 0.6-2.2 0.5-2.8-0.4-2.3-0.8 0.6-1.7-0.9-2.9-4.7-1-3.1-1.9-5.5-2-5.5-0.2 0 0 2.4 0.3 5.2 0.3 2.9 1.4 11.4 2.5 18.8 1 7.4 1.9 17.3 1.9 22 0 6.1-1 13-3.6 24.5-2 8.8-4.6 19.1-5.9 23-1.3 3.9-3.3 9.4-4.4 12.2-1.2 2.9-1.9 5.8-1.6 6.3 0.3 0.5-0.2 1.2-1 1.5-0.8 0.3-1.5 1.6-1.5 3 0 1.5-0.8 2.9-2 3.5-1.3 0.6-1.9 1.8-1.7 3.2 0.1 1.4-0.4 2.3-1.2 2.3-0.8 0-2.5 2-3.8 4.5-1.3 2.5-2.4 5.6-2.4 7l-0.1 2.5c-1.1-4.2-1.6-4.6-2.1-3.8-0.4 0.7-0.5 2-0.2 2.8 0.3 0.8-0.1 1.5-0.7 1.5-0.7 0-4.4 3.1-8.3 7-3.9 3.9-7.2 7-7.5 7-0.3-0.1-2.6 2-5.2 4.5-2.7 2.5-5.4 4.5-6.2 4.5-0.7 0-2.5 1.1-4 2.5q-2.6 2.5-3 1.2c-0.3-0.6-0.5-0.2-0.5 1-0.1 1.9-0.7 2.3-3.6 2.3-2 0-3.3 0.4-3 1 0.3 0.5-0.9 1.7-2.5 2.5-1.6 0.8-3.5 1.3-4 1-0.5-0.3-1 0-1 0.5 0 0.5-1.6 1-3.5 1-2 0-3.3 0.4-3 1 0.3 0.5-1.5 1.6-4 2.2q-4.5 1.3-5.4 0.3-1-1-2.6 0.2c-0.8 0.7-2.3 1-3.2 0.7-1.6-0.6-1.6-0.7 0.2-1.5 1.4-0.7 1-0.8-1.5-0.3-1.9 0.3-6.2 0.8-9.5 0.9-3.7 0.2-5.2 0-4-0.5 1.1-0.4 4.3-1.5 7-2.3 5-1.5 5-1.5-8.5-1.3-7.4 0.2-12.9 0.1-12.2-0.1 0.6-0.1 1-0.8 0.7-1.3-0.3-0.5-1.7-1-3.2-1-1.6 0-3.2-0.4-3.8-0.9-0.6-0.6-3.5-1.4-6.5-2-3-0.5-8-1.5-11-2.1-3-0.6-6.2-0.8-7-0.5-0.8 0.3-3.1 0-5-0.7-1.9-0.7-4.1-1.9-4.7-2.6-0.9-0.8-2.3-0.9-4.3-0.5-2.2 0.6-3 0.4-3-0.5 0-0.7-0.7-1-1.7-0.7-1 0.3-4.9-1.3-8.8-3.5-3.9-2.3-7.6-4.1-8.2-4-0.7 0-1.3-0.3-1.3-0.8 0-0.4-1.3-1.3-3-2-1.9-0.7-2.7-1.6-2.2-2.4 0.5-0.8 0.1-1-1.5-0.5-1.7 0.5-2.3 0.3-2.3-0.8 0-0.8-1.1-1.7-2.5-2-1.4-0.3-2.5-1-2.5-1.5 0-0.5-0.6-1-1.2-1-0.7-0.1-2.5-1.9-4-4-1.6-2.2-3.7-4.2-4.8-4.5-1.1-0.3-2-1.2-2-2 0-0.8-0.3-1.3-0.7-1.1-0.5 0.2-1.8-0.9-3-2.3-1.3-1.4-4.7-5.4-7.8-8.9-3-3.4-5.5-6.7-5.5-7.2 0-0.5-1.4-3-3-5.5-1.6-2.5-2.8-5.2-2.5-6 0.3-0.8-0.1-1.5-0.7-1.5-0.7 0-2.1-1.9-3.1-4.3-1-2.3-4.7-10.1-8.3-17.2-4.1-8.3-6.6-14.8-7-18-0.4-2.8-1.1-5.7-1.6-6.5-0.5-0.9-0.7 0.4-0.3 3.5 0.3 2.7 0.2 4.3-0.2 3.5-0.3-0.8-1.2-2.1-2-2.8-1-0.9-1.2-5-0.8-19 0.2-9.7 0.7-22.4 1-28.2 0.5-7.9 1.2-12 3.1-16.5 1.4-3.3 2.7-7.5 2.9-9.3 0.3-1.7 1.6-5 3-7.2 1.4-2.2 2.5-4.7 2.5-5.5 0-0.8 0.6-2.6 1.3-4 0.6-1.4 1.8-2.5 2.5-2.5 0.6 0 6.4-5.1 12.7-11.3 6.3-6.1 11.5-11.8 11.5-12.5 0-0.6 0.9-1.8 2-2.5 1.1-0.6 2-1.6 2-2.2-0.1-0.6 1.9-2.3 4.2-3.9 2.4-1.6 5.4-3.6 6.8-4.6 1.4-0.9 6.8-3.7 12-6.2 5.2-2.5 12.9-5.6 17-6.8 7.1-2.1 8.5-2.2 25.5-1.5 9.9 0.5 19.6 0.8 21.5 0.7 1.9 0 3.9 0.3 4.5 0.7 0.6 0.5 5.3 1.2 10.5 1.7 5.2 0.5 16.5 0.9 25 0.9 10.3 0 16.8 0.5 19.5 1.4 2.2 0.8 5.1 1.8 6.5 2.3 1.4 0.4 3.7 1.8 5.1 3.1 1.5 1.2 2.7 2.5 2.8 2.9 0 0.5 1.5 2.4 3.1 4.3 2.3 2.7 3.5 3.4 5.3 2.9 1.2-0.4 1.9-0.4 1.5 0-0.5 0.3 0.6 1.7 2.2 3.1 2.2 1.9 3.8 2.4 6.3 2.1 1.7-0.3 3.5-0.5 4-0.5 0.4-0.1 0.5-1 0.2-2.1-0.3-1.1-0.2-2 0.3-2 0.4 0 1.3-1.1 2-2.5 0.6-1.4 1.2-4.4 1.2-6.8 0-2.3 0.7-6.2 1.5-8.7 0.8-2.5 2.2-7.2 3.2-10.5 1.3-4.3 4-8.9 9.4-16 4.1-5.5 9.8-13.4 12.5-17.5 2.8-4.1 5.6-8.9 6.2-10.5 0.6-1.6 2.3-4.1 3.8-5.5 1.4-1.4 5.6-6.6 9.3-11.5 3.7-4.9 8-11 9.6-13.5 1.5-2.5 5.2-7.6 8.1-11.5 2.9-3.9 5.3-7.6 5.4-8.3 0-0.6 1.1-3.1 2.5-5.5 1.3-2.3 4.9-6.9 8-10.2 3.1-3.3 6.8-8 8.3-10.5 1.5-2.5 5.6-8.7 9.2-13.8 3.6-5.2 10.2-14.2 14.7-20 4.5-5.9 9.5-12.3 11.1-14.2 1.6-1.9 4.4-6 6.3-9 1.8-3 5.3-8 7.6-11 2.3-3 5.5-7 7-8.9 1.5-1.9 5.3-4.6 8.4-6 3.1-1.5 5.4-3.1 5.2-3.9-0.1-0.6-0.1-1.2 0.2-1.2 0.3 0 1.6 0.7 3 1.5 1.4 0.8 2.5 1.2 2.5 0.7-0.1-0.4 1.6 0.6 3.7 2.2 2.1 1.7 4 3.3 4.3 3.6 0.3 0.3 1.7 1.3 3.3 2.3 1.5 0.9 3.2 1.6 3.8 1.4 0.7-0.1-2.5-3.1-7-6.7-4.5-3.6-13.5-10.2-19.9-14.7-6.4-4.5-17.3-11.5-24.2-15.6-6.9-4.1-17-9.8-22.5-12.6-5.5-2.8-12.2-6-15-7.3-2.7-1.2-5.8-2.1-6.7-2-1 0.1-1.6-0.1-1.3-0.6 0.2-0.4-3.7-2.4-8.8-4.6-5.1-2.1-11.2-4.8-13.7-5.9-2.5-1.2-5-2-5.5-1.9-0.5 0.2-1.2-0.1-1.5-0.6-0.3-0.6-6.8-3.1-14.5-5.6-7.7-2.6-19-6-25-7.6-6-1.6-15.3-3.8-20.5-4.9-5.2-1.2-14.9-3-21.5-4.1-6.6-1.1-13.8-1.9-16-1.8-3.6 0.1-3.6 0.2-0.7 0.5 2.2 0.2 3 0.7 2.5 1.5-0.6 0.8-0.2 1 1.5 0.5 1.2-0.4 3.1-0.5 4.2-0.2 1.7 0.4 2 1.3 2 6.5 0 3.3 0.6 7.2 1.4 8.7 1.3 2.4 1.3 3.4 0.1 6.8-0.7 2.2-2.3 8.6-3.4 14.2-1.2 5.7-2.1 13.9-2.1 18.3 0 4.4-0.7 12.2-1.5 17.2-0.9 5.1-2.4 13.4-3.5 18.3-1 4.9-2.4 13.5-3 19-0.6 5.5-2 14.9-3.1 21-1.1 6.1-3.3 20.7-4.9 32.5-1.6 11.8-3.9 26.4-5 32.5-1.2 6.1-3 14.8-4.1 19.5-1.2 4.7-2.7 14.2-3.5 21.2-0.8 7.1-1.8 14.7-2.4 17-0.6 2.6-2.3 5.6-4.2 7.6-1.8 1.8-5.3 4.6-7.8 6.2-3.6 2.4-5.6 3-10.2 3-4 0-7.7-0.8-11.8-2.5-3.3-1.4-8.1-3.8-10.7-5.4-2.7-1.6-6-3.1-7.5-3.5-1.6-0.3-3.4-1.6-4.2-2.9-0.8-1.2-2.9-9.4-4.6-18.2-2.7-13.7-3-16.6-2-20.5 0.8-3.3 0.8-7.3-0.1-15-0.6-5.8-2.2-14.8-3.5-20-1.3-5.2-3.3-14.4-4.5-20.5-1.3-6.8-2.1-14.9-2.1-21 0-5.5 0.1-10.4 0.3-11 0.2-0.6-0.6-5.3-1.8-10.5-1.2-5.2-2.8-15.8-3.4-23.5-0.7-8.5-2.1-17.1-3.5-22-1.3-4.4-2.4-9.7-2.4-11.8 0-2-0.4-5.6-0.9-8-0.5-2.3-1.5-8-2.1-12.7-1-7.2-0.9-9.1 0.4-12.3 1.5-3.6 1.5-3.9-1.5-11l-3-7.2c3.8-3.6 4.1-4.8 3.7-8.3-0.5-3.2-1-4.2-2.3-4.1-1 0.1-3.2 0.4-4.8 0.6z"/>
		<path id="Path 2" fill-rule="evenodd" class="s1" d="m495.5 57.2c9.4-0.1 22.6 0.3 29.5 0.8 6.9 0.5 15.9 1.2 20 1.6 5 0.4 7 0.9 6 1.5-1.1 0.6-0.6 0.9 1.8 0.9 2.2 0 3 0.4 2.5 1.2-0.6 0.8-0.2 1 1.4 0.5 1.3-0.4 3.2-0.5 4.3-0.2 1.7 0.4 2 1.3 2 6.5 0 3.3 0.6 7.2 1.4 8.7 1.3 2.4 1.3 3.4 0.1 6.8-0.7 2.2-2.3 8.6-3.4 14.2-1.2 5.7-2.1 13.9-2.1 18.3 0 4.4-0.7 12.2-1.5 17.2-0.9 5.1-2.4 13.4-3.5 18.3-1 4.9-2.4 13.5-3 19-0.6 5.5-2 14.9-3.1 21-1.1 6.1-3.3 20.7-4.9 32.5-1.6 11.8-3.9 26.4-5 32.5-1.2 6.1-3 14.8-4.1 19.5-1.2 4.7-2.7 14.2-3.5 21.2-0.8 7.1-1.8 14.7-2.4 17-0.6 2.6-2.3 5.6-4.2 7.6-1.8 1.8-5.3 4.6-7.8 6.2-3.6 2.4-5.6 3-10.3 3-3.9 0-7.6-0.8-11.7-2.5-3.3-1.4-8.1-3.8-10.8-5.4-2.6-1.6-5.9-3.1-7.4-3.5-1.6-0.3-3.4-1.6-4.2-2.9-0.8-1.2-2.9-9.4-4.6-18.2-2.7-13.7-3-16.6-2-20.5 0.8-3.3 0.8-7.3-0.1-15-0.6-5.8-2.2-14.8-3.5-20-1.3-5.2-3.3-14.4-4.5-20.5-1.3-6.8-2.1-14.9-2.1-21 0-5.5 0.1-10.4 0.3-11 0.2-0.6-0.6-5.3-1.8-10.5-1.2-5.2-2.8-15.8-3.4-23.5-0.7-8.5-2.1-17.1-3.5-22-1.3-4.4-2.4-9.7-2.4-11.8 0-2-0.4-5.6-0.9-8-0.5-2.3-1.5-8-2.1-12.7-1-7.2-0.9-9.1 0.4-12.3 1.5-3.6 1.5-3.9-4.5-18.2l2.1-2c1.7-1.6 2-2.7 0.9-10l8.3-1.3c4.6-0.7 13.2-1.7 19.3-2.1 6.1-0.5 18.6-0.9 28-0.9zm260.9 88.8c0.3 0 1.7 0.7 3.1 1.5 1.4 0.8 2.5 1.2 2.5 0.8-0.1-0.5 1.6 0.5 3.7 2.1 2.1 1.7 4 3.3 4.3 3.6 0.3 0.3 1.7 1.3 3.3 2.3 1.5 0.9 3.3 1.7 4 1.7 0.6 0 1.9 0.7 2.7 1.5 0.8 0.8 2.6 2.4 4 3.7 1.3 1.3 4 3.6 6 5.1 1.9 1.6 7.4 6.6 12.3 11 4.8 4.5 8.7 9 8.7 10 0 1.1-0.6 1.6-1.7 1.3-1-0.2-2.6 0-3.5 0.5-1.3 0.7-1.8 0.5-1.8-0.6 0-0.8-0.4-1.5-0.8-1.5-0.4 0-1.3 0.6-2 1.3-0.6 0.7-1.8 0.9-2.7 0.5-0.8-0.5-1.3-1.1-1.1-1.5 0.2-0.5-0.2-1.9-1-3.3-0.7-1.4-1.3-2.2-1.4-1.7 0 0.4-0.9 0.3-2-0.3-1.1-0.6-2-1.9-2-3 0-1.7-0.5-1.9-3.2-1.5-2.4 0.4-4 0-5.8-1.3-1.9-1.5-3.5-1.8-6.5-1.4-2.2 0.2-5.4 1.4-7 2.6-1.6 1.1-5.4 4.5-8.3 7.6-2.9 3-7.7 8.4-10.6 12-3 3.6-9.6 12.6-14.8 20-5.2 7.4-10.7 15.3-12.3 17.5-1.6 2.2-7.1 7.8-12.3 12.5-5.2 4.7-12 11.9-15.1 16-3.1 4.1-7.2 10.6-9.1 14.5-2.6 5.3-5.8 9.3-13 16.5-5.2 5.2-11.4 12-13.8 15-2.3 3-6.6 8.6-9.6 12.5-2.9 3.9-6.6 8.1-8.1 9.5-1.5 1.4-5.2 6.2-8.1 10.8-3 4.5-6.8 9.2-8.4 10.5-1.7 1.2-5.1 5.1-7.5 8.7-2.4 3.6-4.4 6.9-4.4 7.5 0 0.6-1.2 2.1-2.7 3.5-1.4 1.4-3.2 3.9-3.9 5.5-0.8 1.6-2.2 4.3-3.2 6-1 1.6-2.3 3.4-2.8 4-0.7 0.9-1.8 0.8-4-0.3-2-0.9-2.6-1.7-1.7-2.1 0.7-0.3 1-1.4 0.7-2.3-0.3-1-0.2-1.8 0.3-1.8 0.4 0 1.3-1.1 2-2.5 0.6-1.4 1.2-4.4 1.2-6.7 0-2.4 0.7-6.3 1.5-8.8 0.8-2.5 2.2-7.2 3.2-10.5 1.3-4.3 4-8.9 9.4-16 4.1-5.5 9.8-13.4 12.5-17.5 2.8-4.1 5.6-8.9 6.2-10.5 0.6-1.6 2.3-4.1 3.8-5.5 1.4-1.4 5.6-6.6 9.3-11.5 3.7-4.9 8-11 9.6-13.5 1.5-2.5 5.2-7.6 8.1-11.5 2.9-3.9 5.3-7.6 5.4-8.2 0-0.7 1.1-3.2 2.5-5.5 1.3-2.4 4.9-7 8-10.3 3.1-3.3 6.8-8 8.3-10.5 1.5-2.5 5.6-8.7 9.2-13.8 3.6-5.2 10.2-14.2 14.7-20 4.5-5.9 9.5-12.3 11.1-14.2 1.6-1.9 4.4-6 6.3-9 1.8-3 5.3-8 7.6-11 2.3-3 5.5-7 7-8.9 1.5-1.9 5.3-4.6 8.4-6 3.3-1.6 5.4-3.1 5.1-3.8-0.2-0.7-0.2-1.3 0.2-1.3zm114.2 117.7c1 0.6 5.1 6.4 9.1 12.9 3.9 6.5 10.8 19.3 15.2 28.4 4.5 9.1 8.1 16.6 8.1 16.8 0 0.1-0.7-0.1-1.6-0.6-1-0.4-1.9-0.1-2.5 0.8-0.5 0.8-0.9 2.6-0.9 6.5l-1.3-2.4c-0.6-1.4-1.7-2.5-2.2-2.4-0.5 0-1.5 1-2 2.2-0.5 1.1-1.7 2.1-2.5 2.1-0.9 0-2 1.7-2.7 4-0.7 2.2-1.3 4.7-1.3 5.5 0 0.8 0.3 1.6 0.8 1.6 0.4 0.1 2.3 0.3 4.2 0.6 1.9 0.3 5.1 0.5 7 0.5 1.9 0.1 4.7 0 6.3-0.1 1.9-0.1 2.7-0.6 2.7-1.9 0-0.9 0.3-2.1 0.7-2.5 0.5-0.4 1.4 0.7 2.1 2.5 0.7 1.8 4 11.2 7.2 20.8 3.2 9.6 6.3 20.4 6.9 24 0.9 5.7 0.8 6.6-0.7 7.7-0.9 0.7-2.5 1.3-3.4 1.3-1 0-1.8 0.6-1.8 1.2 0 0.7-2 1.9-4.5 2.5-2.5 0.7-6.1 1.3-8 1.3-1.9 0-6.8 0.7-10.7 1.5-4 0.9-10 2.6-13.3 3.9-3.3 1.3-9.1 2.9-13 3.5-3.8 0.7-11.3 2.5-16.5 4.1-5.2 1.6-16.9 4.7-26 6.9-9.1 2.1-19.6 4.7-23.5 5.6-3.8 1-10.6 2.6-15 3.5-4.4 1-13 3.2-19 5-6 1.7-13.9 3.8-17.5 4.6-3.6 0.8-11 2.8-16.5 4.4-5.5 1.5-21 5.8-34.5 9.4-13.5 3.6-28.3 7-33 7.5-4.7 0.6-9.8 1.3-11.5 1.7-1.8 0.4-4 0.1-5.5-0.7-1.4-0.7-3.3-1.3-4.2-1.3-1-0.1-1.8 0.6-1.8 1.4 0 0.8-0.3 1.2-0.7 0.7-0.5-0.4-1.6 0.1-2.6 1-1.8 1.7-1.8 1.7-1.1-1.2 0.6-2.2 0.5-2.8-0.4-2.3-0.8 0.5-1.4-0.1-1.9-2-0.3-1.5-1.5-4.7-2.6-7.2-1-2.5-1.9-5.9-1.9-7.5 0-1.6-0.6-4.4-1.5-6-0.8-1.6-1.3-3.7-1-4.5 0.3-0.8 0-2.1-0.6-2.7-0.9-1-0.8-1.7 0.6-3 0.9-1 1.5-2.6 1.2-3.6-0.3-0.9-0.2-1.7 0.3-1.7 0.4 0 1.8-0.3 3.2-0.7 1.8-0.5 2.3-0.4 1.8 0.5-0.6 0.8 0.1 1.2 2.2 1.2 1.7 0 3.2-0.4 3.5-1 0.3-0.6 0-1.1-0.6-1.3-0.6-0.1 0-1.5 1.4-3.2 1.5-1.6 2.4-3.3 2.2-3.8-0.3-0.4 2-2.7 5-5.2 3-2.5 5-4.5 4.5-4.5-0.5 0-0.8-0.4-0.5-1 0.3-0.6 1.1-0.9 1.8-0.8 0.7 0.2 4.8-2.1 9-5 4.2-2.8 7.7-5.4 7.7-5.7 0-0.3 2.8-2.4 6.3-4.8 3.4-2.4 6.9-4.4 7.7-4.4 0.8 0 4.1-1.7 7.3-3.9 3.2-2.1 5.8-4.2 5.7-4.7 0-0.4 0.6-0.7 1.3-0.7 0.6 0 6.8-3.6 13.7-8 6.9-4.5 19.7-13.4 28.5-19.8 8.7-6.4 19.5-13.8 24-16.5 4.6-2.7 7.1-4.7 6-4.7-1.1 0 4.3-3.8 12-8.5 7.7-4.7 14.7-8.3 15.5-8 0.8 0.3 5.5-1.7 10.5-4.5 5-2.8 12.2-7.5 16-10.5 3.9-3 9.6-7.1 12.7-9.2 3.3-2.2 5.6-4.3 5.3-5.1-0.3-0.7 2.1-2.4 6.3-4.4 3.7-1.7 8.7-3.2 11.2-3.4 2.5-0.1 5.1-0.3 5.8-0.3 0.7-0.1 0.9-0.7 0.5-1.7-0.6-1.3-0.3-1.5 1.3-0.7zm-517.8 240.3c0.1 0 0.1 1.1 0 2.5-0.2 1.3-0.1 2.5 0.2 2.5 0.3 0 0.5 2.2 0.5 5 0 2.7-0.3 5-0.8 5-0.4 0-0.4 2.4-0.1 5.2 0.3 2.9 1.2 8.2 2 11.8 0.9 4.4 1.1 6.9 0.4 7.7-0.6 0.7-1.3 1.1-1.8 0.8-0.4-0.3-1.9 0.6-3.5 2-1.5 1.4-2.7 2.7-2.7 3 0 0.3-0.3 2.9-0.7 5.7-0.4 2.9-0.7 6.9-0.6 8.8 0 1.9 0.3 5.3 0.7 7.5 0.4 2.2 1.9 5.8 3.4 8.1 1.5 2.3 4.2 6.1 6 8.5 1.9 2.4 3.8 4.3 4.3 4.1 0.5-0.1 0.9 0.7 0.9 1.8 0 1.1 1.8 3.9 4 6.2 2.2 2.4 4 4.6 4 5 0 0.5-0.5 0.8-1 0.8-0.6 0-0.8 0.5-0.5 1 0.3 0.5 1.1 0.8 1.7 0.5 1-0.4 1.3 1.7 1.2 8.7 0 7-0.4 9.9-1.7 11.8-0.9 1.4-16.9 17.9-35.4 36.8-18.6 18.8-34.1 34.2-34.6 34.2-0.4 0-8.7 8-18.5 17.7-9.8 9.8-21.6 21.8-26.4 26.8-4.7 5-11 11.2-13.8 14-2.9 2.7-5.9 6.5-6.6 8.2-0.9 2-2.8 4-5.2 5.2-2 1.1-5.5 3.7-7.7 5.8-2.2 2.2-5.9 5.9-8.2 8.4-2.3 2.4-4.2 5.1-4.2 5.9 0 0.8-0.8 2.2-1.8 3.1-1 0.9-2.9 2-4.3 2.4-1.4 0.5-5.5 3.1-9.2 5.9-6.2 4.7-6.7 5.3-6.1 8.1 0.6 2.8 0.3 2.7-5.6-3-3.4-3.3-10.6-11-16-17-5.4-6-13.1-15.3-17.2-20.5-4.1-5.2-10.8-14.5-15-20.5-4.2-6-11-16.6-15.1-23.5-4.1-6.9-9.9-17.1-12.9-22.8-3-5.6-5.7-10.3-6.2-10.2-0.4 0-0.7-0.8-0.7-1.8 0-0.9-2.2-6.7-4.9-12.7-2.7-6-7.1-17.1-9.9-24.5-2.8-7.4-6.7-19-8.6-25.8-2-6.7-3.6-13.2-3.6-14.5 0-1.2-0.4-2.7-1-3.2q-1-1 0.3-4.3c0.6-1.8 1.9-3.2 2.7-3.2 0.8 0.1 2.1-0.5 2.7-1.2 0.7-0.7 1.4-4 1.9-13.3l8-2.7c4.3-1.5 12.4-3.4 17.9-4.3 5.5-0.8 14.9-2.4 21-3.4 6.9-1.2 11.7-1.5 12.7-1 1 0.5 2.7 0.9 3.8 0.9 1.1 0 2.9-0.9 4-2 1.1-1.1 4.1-2.5 6.7-3.1 2.7-0.5 8.4-2.1 12.8-3.4 4.4-1.4 10.2-2.9 13-3.4 4.1-0.7 5.4-0.6 7.3 0.8 2.1 1.5 2.4 1.5 4.5-0.6 1.2-1.2 4-2.5 6.2-2.9 2.2-0.4 6.5-1.5 9.5-2.6 3-1 12.7-3.4 21.5-5.3 11.5-2.4 16.6-3.1 18.2-2.4 1.6 0.6 4.4 0.4 8.8-0.6 3.6-0.8 7.7-2.1 9.2-2.9 1.6-0.8 10-3 18.8-4.9 8.8-2 18-3.9 20.5-4.2 2.5-0.4 8.3-1.6 13-2.7 8.5-1.9 8.5-2 16-9.6 4.1-4.2 7.8-7.7 8.2-7.7 0.3 0 1-0.3 1.4-0.8 0.4-0.4 0.1-0.7-0.6-0.7-0.9 0-1.1-0.4-0.5-1 0.6-0.5 2.5-1.4 4.2-2 2.7-0.8 3.3-0.7 3.3 0.5 0 0.9 0.9 1.5 2.2 1.5 2.2 0 2.3-0.2 1.5-5.5-0.5-3.9-0.3-5.9 0.5-7 0.7-0.8 1.4-1.4 1.6-1.5zm288 29.5c0.2 1.1-0.4 4.7-1.2 8-0.8 3.3-2.4 8.2-3.6 11-1.1 2.7-1.8 5.6-1.5 6.2 0.3 0.7-0.4 2.1-1.5 3-1.2 1-2.1 2.6-2 3.5 0 1-0.9 3.5-1.9 5.5-1.1 2.1-2.7 4.1-3.5 4.5-0.9 0.5-1.6 1.8-1.6 3-0.1 2.1 0.1 2.2 1.7 0.7 1-0.9 2.4-1.5 3-1.3 0.7 0.2 1.5-0.5 1.8-1.6 0.4-1.8 0.7-1.8 2-0.5 0.8 0.8 2 1.3 2.5 1 0.5-0.3 1.5 0.1 2 0.7 0.6 0.7 0.9 2.9 0.7 4.8-0.2 1.9-1.9 6.6-3.8 10.4-1.9 3.8-4.8 8.5-6.5 10.5-1.7 2-7.3 6.5-12.5 10.1-5.2 3.5-13.2 9.5-17.9 13.3-4.7 3.7-12.3 9.4-17 12.4-4.7 3.1-10 7-11.9 8.7-1.9 1.7-5.3 4.9-7.5 7.2-2.3 2.2-6.4 5.3-9.1 6.9-2.8 1.6-7 3.5-9.5 4.2-3 0.9-6.4 1.1-10.5 0.6-3.3-0.4-6.6-1.3-7.3-2-0.8-0.9-3.2-1.2-7.5-0.9-3.4 0.2-8.7 0.5-11.7 0.7-3 0.1-4.4 0.4-3 0.6 1.9 0.4 0.6 1.2-6 3.4-4.7 1.6-11.7 3.8-15.5 4.9-3.9 1.1-8 2.2-9.3 2.5-1.6 0.4-2.3 1.4-2.6 3.7-0.3 1.8-1 6.4-1.6 10.3-0.6 3.9-1.7 11-2.5 16-0.7 5-2.7 15.1-4.4 22.5-1.6 7.4-3.4 17.3-4 22-0.6 4.7-2.2 17.7-3.7 29-1.4 11.3-3.2 23.2-3.9 26.5-0.8 3.3-1.6 7.4-1.8 9-0.3 1.6-1.2 5.5-2.1 8.5-1.2 3.9-1.6 9-1.4 17.5 0.1 7.6-0.3 12.8-1 14.2-0.8 1.5-0.9 3.5-0.4 5.5 0.5 2.1 0.3 5.4-0.5 8.8-0.7 3-2.2 6.7-3.3 8.2-1.6 2.2-2 4.3-2 10.3 0 5.2-1 11.2-3.2 19.7-1.8 6.8-3.6 12.4-4 12.5-0.4 0.2-0.8 1-0.8 1.8 0 1.1-0.7 1.4-2.5 1-1.4-0.3-2.7 0-3 0.5-0.3 0.5-2.5 1-5 1-2.5 0-4.5 0.5-4.5 1 0 0.5-0.9 1-1.9 1-1.1 0-2.7 0.8-3.6 1.7-1.3 1.5-1.4 1.9-0.3 2.5 0.7 0.4-0.7 0.6-3.2 0.4-2.5-0.2-9.9-1.8-16.5-3.6-6.6-1.8-12.7-3.6-13.5-4.1-0.8-0.4-1.1-0.8-0.5-0.8 0.6 0 0.4-0.7-0.3-1.6-0.6-0.8-1-2.4-0.7-3.5 0.3-1.1 1.1-2 1.7-2 0.7 0 2.5-2.6 4-5.8 1.5-3.1 3-7.3 3.4-9.2 0.4-1.9 2.9-9 5.5-15.8 3.9-9.8 5.1-14 5.8-21.5 0.7-7.9 1.7-11.3 7-24 3.3-8.1 7.2-18.7 8.6-23.7 1.4-5 2.5-10.9 2.5-13.3 0-2.5 1.4-7.3 3.5-12.2 1.9-4.4 4.5-11.4 5.9-15.5 1.3-4.1 2.9-10.9 3.5-15 0.5-4.1 2.3-11.1 3.9-15.5 1.6-4.4 3.9-10.7 5.1-14 1.2-3.3 4-13.4 6.3-22.5 2.2-9.1 5-20.2 6.2-24.8 1.5-6.1 2.8-8.8 4.6-10.2 1.4-1.1 3.2-2 4-2 0.8 0 2.6-0.6 4-1.3 1.4-0.8 3.9-1.7 5.5-2 1.6-0.4 4.1-1.5 5.5-2.6 1.5-1.2 4.3-2 7-2.1 2.5-0.1 5.7-0.2 7.1-0.3 1.5-0.1 2.5-0.5 2.3-1-0.2-0.4 0.2-1 0.8-1.4 0.7-0.4 2.2-0.9 3.3-1 1.1-0.2 2.4-1 3-1.8 0.5-0.8 1.7-1.4 2.5-1.5 0.8 0 2.7-0.8 4.3-1.8 1.5-0.9 2.4-2 2-2.4-0.5-0.4 0.6-1 2.2-1.3 1.6-0.4 3.8-1 4.7-1.6 1-0.5 2.5-0.9 3.3-0.9q1.5 0 0.9 1.7c-0.5 1.4-0.2 1.6 1.2 1 1.1-0.4 2.4-0.3 2.9 0.3 0.5 0.5 2.4 1.2 4 1.6 1.6 0.3 3.8 0.6 4.7 0.7 1 0.1 2 0.8 2.3 1.4 0.3 0.7 1.2 1.3 2 1.3 0.8 0 1.5 0.5 1.5 1 0 0.5-0.6 1.2-1.3 1.4-0.6 0.3 0.2 0.5 1.8 0.5 2.2 0.1 2.6-0.2 1.5-0.8-0.8-0.5-1.2-1.3-0.9-1.7 0.4-0.5 3.3-2 6.5-3.3 3.3-1.4 7.5-3.6 9.4-5 1.9-1.4 3.8-3 4.2-3.6 0.4-0.5 0.8-2 0.8-3.3 0-1.9-0.4-2.1-2.8-1.5-2.4 0.6-2.5 0.5-1.2-0.8 0.8-0.8 3.1-2.1 5-2.9 1.9-0.7 6.6-2.9 10.5-4.8 3.9-1.9 8.9-4.8 11.2-6.3 2.4-1.6 4.8-2.9 5.3-2.9 0.5 0 1-0.5 1-1 0-0.5 0.8-1 1.7-1 1 0 5.1-3.4 9-7.5 4-4.1 7.8-7.3 8.3-7 0.5 0.3 1.2-0.2 1.5-1 0.3-0.8 0.8-2.3 1.2-3.3 0.3-0.9 0.5-2 0.5-2.5-0.1-0.4 1.4-1.7 3.4-3 2-1.2 4.2-3.3 4.9-4.7 0.7-1.4 2.6-4 4.4-5.8 1.7-1.7 2.9-3.7 2.6-4.2-0.3-0.5 0.5-1.9 1.7-3 1.5-1.3 2-2.5 1.5-3.5-0.4-0.9-0.2-1.5 0.5-1.5 0.7 0 1-0.3 0.6-0.7-0.4-0.4 0-1.5 1-2.3 0.9-0.8 3.1-4.4 4.9-8 1.7-3.6 4.3-9.4 5.6-13 1.4-3.6 3.2-8.7 3.9-11.5 0.8-2.9 1.4-4.1 1.6-3zm-49.6 74.5c0.5 0 0.8 0.5 0.8 1 0 0.5-2.7 3-6 5.5-3.3 2.5-6.5 4.5-7 4.5-0.5 0-1-0.6-1-1.3 0-0.6 1.1-1.8 2.5-2.5 1.4-0.6 2.5-1.7 2.5-2.2 0-0.5 0.8-0.7 1.7-0.3 1.1 0.3 1.5 0.2 1-0.3-0.4-0.5 0.5-1.7 2-2.6 1.6-1 3.1-1.8 3.5-1.8z"/>
		<path id="Path 3" class="s2" d="m775 176.8c-1.9 0.2-4.9 1.3-6.5 2.5-1.6 1.2-5.4 4.6-8.3 7.7-2.9 3-7.7 8.4-10.6 12-3 3.6-9.6 12.6-14.8 20-5.2 7.4-10.7 15.3-12.3 17.5-1.6 2.2-7.1 7.8-12.3 12.5-5.2 4.7-12 11.9-15.1 16-3.1 4.1-7.2 10.6-9.1 14.5-2.6 5.3-5.8 9.3-13 16.5-5.2 5.2-11.4 12-13.8 15-2.3 3-6.6 8.6-9.6 12.5-2.9 3.9-6.6 8.1-8.1 9.5-1.5 1.4-5.2 6.2-8.1 10.7-3 4.6-6.8 9.3-8.4 10.5-1.7 1.3-5.1 5.2-7.5 8.8-2.4 3.6-4.4 6.9-4.4 7.5 0 0.5-1.2 2.1-2.7 3.5-1.4 1.4-3.2 3.9-3.9 5.5-0.8 1.6-2.2 4.3-3.2 6-1 1.6-2.4 3.5-3 4.2-0.8 0.8-1.5 0.9-1.8 0.3-0.3-0.6-1.3-1-2.2-1-1.2 0 0.1 1.9 4.2 5.9 3.3 3.2 7.8 8 10.1 10.7 2.2 2.7 5.8 7.4 8.1 10.4 2.2 3 6.2 9.7 8.9 14.9 2.7 5.1 5 8.6 5.2 7.7 0.1-0.9-0.5-3.1-1.4-4.9-0.9-1.7-1.4-3.9-1.1-4.7 0.3-0.8 0-2.1-0.6-2.7-0.9-1-0.8-1.7 0.6-3 0.9-1 1.5-2.5 1.2-3.3-0.4-1 0.2-1.8 1.7-2.2 1.3-0.4 2.6-0.8 3.1-0.8 0.4 0 0.5 0.4 0.2 1-0.3 0.6 0.8 1 2.5 1 1.6 0 3.2-0.5 3.5-1 0.3-0.6 0-1.1-0.6-1.3-0.6-0.1 0-1.5 1.4-3.2 1.5-1.6 2.4-3.3 2.2-3.8-0.3-0.4 2-2.7 5-5.2 3-2.5 5-4.5 4.5-4.5-0.5 0-0.8-0.4-0.5-1 0.3-0.6 1.1-0.9 1.8-0.8 0.7 0.2 4.9-2.1 9.2-5 4.4-2.9 7.9-5.5 7.8-5.7-0.2-0.3 2.5-2.4 6-4.8 3.4-2.4 6.9-4.4 7.7-4.4 0.8 0 4.1-1.7 7.3-3.9 3.2-2.1 5.8-4.2 5.7-4.7 0-0.4 0.6-0.7 1.3-0.7 0.6 0 6.8-3.6 13.7-8 6.9-4.5 19.7-13.4 28.5-19.8 8.7-6.4 19.5-13.8 24-16.5 4.6-2.7 7.1-4.7 6-4.7-1.1 0 4.3-3.8 12-8.5 7.7-4.7 14.7-8.3 15.5-8 0.8 0.3 5.5-1.7 10.5-4.5 5-2.8 12.1-7.5 16-10.5 3.9-3 9.6-7.1 12.7-9.2 3.3-2.2 5.6-4.3 5.3-5.1-0.3-0.7 2.1-2.4 6.3-4.4 3.7-1.7 8.7-3.2 11.2-3.4 2.5-0.1 5.1-0.3 5.8-0.3 0.7-0.1 0.9-0.7 0.5-1.7-0.7-1.3-0.4-1.4 1.2-0.8 1.6 0.8 1.5 0.3-0.9-3.6-1.6-2.5-5.5-8.3-8.7-13-3.2-4.7-9.7-13.4-14.4-19.5-4.7-6.1-11.4-14.1-14.8-17.9-3.4-3.8-9.3-10-13.2-13.8-3.9-3.7-7.2-6.3-7.5-5.7-0.3 0.6-1.2 0.9-2 0.6-0.8-0.2-2.3 0-3.2 0.4-1.3 0.7-1.8 0.5-1.8-0.6 0-0.8-0.4-1.5-0.8-1.5-0.4 0-1.3 0.6-2 1.2-0.6 0.8-1.8 1-2.7 0.5-0.8-0.4-1.3-1-1.1-1.5 0.2-0.4-0.2-1.8-1-3.2-0.7-1.4-1.3-2.1-1.3-1.7 0 0.4-1 0.3-2.1-0.3-1.1-0.6-2-2-2-3 0-1.7-0.5-1.9-3.2-1.5-2.4 0.4-4.1 0-6-1.5-1.6-1.1-2.9-1.9-3-1.8-0.2 0-1.9 0.3-3.8 0.6zm123.6 145.7c-0.3 0.8-0.6 2.5-0.6 3.8 0 2.2-0.1 2.1-1.3-0.3-0.7-1.4-1.7-2.5-2.2-2.5-0.6 0-1.5 1-2 2.3-0.5 1.2-1.7 2.2-2.5 2.2-0.9 0-2 1.7-2.7 4-0.7 2.2-1.3 4.7-1.3 5.5 0 0.8 0.3 1.6 0.8 1.6 0.4 0.1 1.8 0.3 3.2 0.6 1.4 0.2 5.6 0.4 9.4 0.5 3.8 0 7-0.1 7.1-0.3 0.2-0.2 0.5-1.9 0.9-3.6 0.6-3.1 0.4-3.3-1.6-2.7-2.1 0.6-2.2 0.5-0.5-0.7 1.1-0.8 1.6-2.1 1.3-3.1-0.4-1-1.1-1.8-1.6-1.8-0.5 0-0.8-0.4-0.5-1 0.3-0.6 0.1-1.8-0.5-2.7-0.7-1.4-1-1.5-1-0.3 0 1.1-0.6 0.9-1.9-0.7-1.5-1.9-2-2-2.5-0.8zm-532 117.2c-1 2.1-2.9 6.7-4.2 10.3-1.4 3.6-3.6 11-4.9 16.5-1.4 5.7-3 16.9-3.7 26.2-0.7 9-1.1 16.3-0.8 16.3 0.3 0 0.5 2.2 0.5 5 0 2.7-0.3 5-0.8 5-0.4 0-0.4 2.4-0.1 5.2 0.3 2.9 1.2 8.2 2 11.8 0.9 4.4 1.1 6.9 0.4 7.7-0.6 0.7-1.3 1.1-1.8 0.8-0.4-0.3-2.1 0.7-3.7 2.2-1.7 1.5-2.9 2.8-2.8 3 0.2 0.2 0 2.7-0.4 5.5-0.4 2.9-0.7 6.9-0.6 8.8 0 1.9 0.3 5.3 0.7 7.5 0.4 2.2 1.9 5.8 3.4 8.1 1.5 2.3 4.2 6.1 6 8.5 1.9 2.4 3.8 4.3 4.3 4.1 0.5-0.1 0.9 0.7 0.9 1.8 0 1.1 1.8 3.9 4 6.2 2.2 2.4 4 4.6 4 5 0 0.5-0.5 0.8-1 0.8-0.6 0-0.8 0.5-0.5 1 0.3 0.5 1.1 0.8 1.7 0.5 1-0.4 1.3 1.7 1.2 8.7 0 7-0.4 9.9-1.7 11.8-0.9 1.4-16.9 17.9-35.4 36.8-18.6 18.8-34.1 34.2-34.6 34.2-0.4 0-8.7 8-18.5 17.7-9.8 9.8-21.6 21.8-26.4 26.8-4.7 5-11 11.2-13.8 14-2.9 2.7-5.9 6.5-6.6 8.2-0.9 2-2.8 4-5.2 5.2-2 1.1-5.5 3.7-7.7 5.8-2.2 2.2-5.9 5.9-8.2 8.4-2.3 2.4-4.2 5.1-4.2 5.9 0 0.8-0.8 2.2-1.8 3.1-1 0.9-2.9 2-4.3 2.4-1.4 0.5-5.5 3.1-9.2 5.9-6.2 4.7-6.7 5.3-6.2 8.1 0.4 2.1 3.2 5.5 8.7 10.8 4.5 4.3 12.7 11.6 18.2 16.1 5.5 4.5 14.5 11.6 20 15.6 5.5 4.1 15.6 11.1 22.5 15.6 6.9 4.5 18.8 11.7 26.5 16 7.7 4.3 21 11.1 29.5 15 8.5 3.9 22 9.7 30 12.7 8 3.1 17.4 6.3 21 7.3 3.6 0.9 7.1 2 7.7 2.5 0.7 0.5 1.7 0.7 2.3 0.4q1-0.5 0-2c-0.6-0.8-0.8-2.4-0.5-3.5 0.3-1.1 1.1-2 1.7-2 0.7 0 2.5-2.6 4-5.8 1.5-3.1 3-7.3 3.4-9.2 0.4-1.9 2.9-9 5.5-15.8 3.9-9.8 5.1-14 5.8-21.5 0.7-7.9 1.7-11.3 7-24 3.3-8.1 7.2-18.7 8.6-23.7 1.4-5 2.5-10.9 2.5-13.3 0-2.5 1.4-7.3 3.5-12.2 1.9-4.4 4.5-11.4 5.9-15.5 1.3-4.1 2.9-10.9 3.5-15 0.5-4.1 2.3-11.1 3.9-15.5 1.6-4.4 3.9-10.7 5.1-14 1.2-3.3 4-13.4 6.3-22.5 2.2-9.1 5-20.2 6.2-24.8 1.5-6.1 2.8-8.8 4.6-10.2 1.4-1.1 3.2-2 4-2 0.8 0 2.6-0.6 4-1.3 1.4-0.8 3.8-1.7 5.5-2 1.6-0.4 4.1-1.5 5.5-2.6 1.5-1.2 4.3-2 7-2.1 2.5-0.1 5.7-0.2 7.1-0.3 1.5-0.1 2.5-0.5 2.3-1-0.2-0.4 0.2-1 0.8-1.4 0.7-0.4 2.2-0.9 3.3-1 1.1-0.2 2.4-1 3-1.8 0.5-0.8 1.7-1.4 2.5-1.5 0.8 0 2.7-0.8 4.3-1.8 1.5-0.9 2.4-2 2-2.4-0.5-0.4 0.5-1 2.2-1.3 1.6-0.4 3.8-1 4.7-1.6 1-0.5 2.5-0.9 3.3-0.9q1.5 0 0.9 1.7c-0.5 1.4-0.2 1.6 1.2 1 1.1-0.4 2.4-0.3 2.9 0.3 0.5 0.5 2.3 1.2 4 1.6 1.6 0.3 3.8 0.6 4.7 0.7 1 0.1 2 0.8 2.3 1.4 0.3 0.7 1.2 1.3 2 1.3 0.8 0 1.5 0.5 1.5 1 0 0.5-0.6 1.2-1.3 1.4-0.6 0.3 0.1 0.5 1.8 0.5 2.2 0.1 2.6-0.2 1.5-0.8-0.8-0.5-1.2-1.3-0.9-1.7 0.4-0.5 3.3-2 6.5-3.3 3.3-1.4 7.5-3.6 9.4-5 1.9-1.4 3.8-3 4.2-3.6 0.4-0.5 0.8-2 0.8-3.3 0-1.9-0.4-2.1-2.8-1.6-2.2 0.5-2.4 0.3-1.2-0.6 1.2-1 1-1.1-1-0.5-1.4 0.3-5.9 1.5-10 2.7-4.1 1.1-10.2 2.7-13.5 3.4-3.3 0.7-11.4 1.6-18 2-6.9 0.4-16.7 0.2-23-0.5-6.1-0.6-15.4-2.2-20.8-3.6-5.3-1.4-15.6-4.6-22.8-7.3-7.1-2.6-12.7-5-12.3-5.5 0.4-0.4-0.5-0.7-1.9-0.7-1.5 0-2.9-0.5-3.2-1-0.3-0.5-2-1.7-3.8-2.6-1.7-0.9-4-1.3-5-1-0.9 0.3-2.7-0.2-4-1.2-1.2-1.1-3.4-2.2-5-2.5-1.5-0.4-2.7-1.2-2.7-1.7 0-0.5-0.8-1-1.8-1-1.5 0.1-1.5-0.1-0.2-1.5 1.3-1.4 1.3-1.6-0.3-1.5-0.9 0-2.2-1-2.8-2.3-0.9-1.6-0.9-2.3 0-2.5 0.6-0.1-0.1-1.6-1.7-3.4-1.5-1.7-3.6-4.1-4.7-5.2-1.1-1.2-4.7-5.5-8-9.6-3.4-4.1-8.4-11.4-11.3-16.3-2.9-4.8-5.2-9.3-5.2-10 0.1-0.6 1.3 0.7 2.8 3.1 1.5 2.3 2.8 4.1 3 4 0.1-0.2-1.1-3.2-2.8-6.8-1.6-3.6-3.2-8.1-3.5-10l-0.6-3.5c3.1 5.4 4.3 7.8 4.6 8.7 0.3 1 0.9 1.8 1.5 1.8 0.5 0 1 0.5 1 1 0 0.5 3.3 5.5 7.2 11 4 5.5 7.6 10 8 10 0.5 0 0.2-1-0.5-2.3-0.6-1.2-1.4-2.4-1.7-2.7-0.3-0.3-1.9-2.3-3.6-4.5-1.7-2.2-3.4-5-3.8-6.3-0.3-1.2-1.1-2.2-1.6-2.2-0.6 0-1.8-2.1-2.7-4.8-0.9-2.6-2.5-5.9-3.5-7.5-1-1.5-1.8-3.3-1.8-4-0.1-0.6-0.9-2.8-1.9-4.7-1.1-1.9-2.6-5.5-3.4-8-0.9-2.5-2.6-7.9-3.8-12-2-6.7-2.3-9.7-2.3-27.5-0.1-16 0.3-21.7 1.8-28.5 1-4.7 2.9-11.6 4.2-15.5 1.4-3.9 3.3-8.9 4.4-11.3 1.1-2.3 1.9-4.7 1.7-5.3-0.1-0.6-1.1 0.7-2.1 2.8zm70.9 184.6c1.1 0.7 6.7 3.2 12.5 5.4 5.8 2.2 12.1 4.6 14 5.1 1.9 0.6 4.8 1.3 6.5 1.6 1.6 0.2 5.7 1 9 1.7 3.6 0.8 13.2 1.3 24 1.3 14.7 0.1 20.1-0.3 29.5-2.2 6.3-1.2 14-3 17-3.9 3-0.9 5.7-1.7 6-1.8 0.3 0 3.3-1.4 6.8-3 3.4-1.7 6.3-3.3 6.2-3.7 0-0.5-0.8-0.6-1.8-0.4-0.9 0.3-6 2.1-11.2 4-5.2 2-13.3 4.5-18 5.6-4.7 1.1-12.8 2.6-18 3.2-5.3 0.6-15.3 0.8-22.5 0.5-7.2-0.3-16.2-1.3-20-2.1-3.9-0.8-7.9-1.7-9-1.9-1.1-0.2-3.4-0.7-5-1.1-1.7-0.4-5-1.4-7.5-2.2-2.5-0.9-5.4-1.9-6.5-2.4-1.1-0.5-4.1-1.8-6.8-2.9-2.6-1.2-5.3-2.1-6-2.1-0.6 0-0.3 0.6 0.8 1.3z"/>
		<path id="Path 4" fill-rule="evenodd" class="s3" d="m506.5 53.6c12.6 0.2 29.3 1.1 37 1.9 7.7 0.8 16.7 2 20 2.6 3.3 0.5 10.5 1.9 16 3 5.5 1.1 17.4 4 26.5 6.4 9.1 2.4 23.9 7 33 10.1 9.1 3.1 21.2 7.6 27 10.1 5.8 2.5 17 7.6 25 11.4 8 3.9 20.1 10.2 27 14.1 6.9 3.9 18.4 11 25.5 15.6 7.1 4.7 17.3 11.6 22.5 15.5 5.2 3.9 14.7 11.3 21 16.5 6.3 5.2 20.1 18.1 30.5 28.6 10.5 10.5 22.7 23.6 27.1 29.1 4.5 5.5 11.5 14.7 15.6 20.5 4.1 5.8 10.2 14.8 13.5 20 3.3 5.2 9.4 15.6 13.6 23 4.1 7.4 10.2 19.4 13.5 26.5 3.3 7.1 8.3 18.6 11 25.5 2.7 6.9 6.6 17.2 8.5 23 2 5.8 5.2 16.4 7.2 23.5 1.9 7.1 4.6 18.2 5.9 24.5 1.4 6.3 3.1 15.8 4 21 0.8 5.2 2 12.9 2.5 17 0.6 4.1 1.5 15.8 2.2 26 0.7 10.6 0.9 27.3 0.6 39-0.3 11.3-1.3 26.6-2.1 34-0.9 7.4-2.8 20.5-4.2 29-1.4 8.5-4.4 22.7-6.6 31.5-2.2 8.8-6.8 24.5-10.3 35-3.4 10.5-9.1 25.5-12.5 33.5-3.4 8-9.5 21-13.6 29-4 8-10.8 20.4-15.1 27.5-4.3 7.2-11.5 18.4-16 25-4.6 6.6-12.4 17.2-17.5 23.6-5.1 6.5-13.2 16.1-18 21.5-4.7 5.5-13.1 14.2-18.5 19.5-5.4 5.2-14.8 13.8-20.8 19-6 5.2-16.9 13.7-24 19-7.1 5.3-16.3 11.8-20.3 14.5-3.9 2.7-7.5 4.7-7.7 4.4-0.3-0.3 1.6-1.9 4.2-3.7 2.6-1.8 7.3-5 10.3-7.2 3-2.2 6-4.4 6.5-4.8 0.5-0.5 3.9-3.1 7.5-5.8 3.6-2.7 10.5-8.3 15.5-12.4 5-4.1 16.7-15.2 26.1-24.6 9.4-9.3 21.3-22 26.4-28 5.1-6 13-16 17.5-22 4.5-6 11.8-16.4 16.2-23 4.4-6.6 10.9-17.2 14.6-23.5 3.6-6.3 9.2-17.1 12.5-24 3.3-6.9 7.4-15.5 9.1-19.3 1.7-3.7 3.1-7 3.1-7.5 0-0.4 0.9-3 2.2-5.7 1.2-2.8 2.3-5.5 2.4-6 0.2-0.5 1.9-5.3 3.9-10.5 2-5.2 5.1-14.7 6.9-21 1.9-6.3 4.6-16 6-21.5 1.4-5.5 3.6-15.6 5-22.5 1.3-6.9 3.2-17.2 4-23 0.9-5.8 2-16.6 2.6-24 0.5-7.4 1-23.4 1-35.5 0-12.1-0.7-29.4-1.5-38.5-0.8-9.1-1.9-19.9-2.5-24-0.5-4.1-1.7-11.3-2.6-16-0.8-4.7-2.6-13.7-4-20-1.4-6.3-3-11.9-3.5-12.5-0.5-0.6-0.9-2.1-0.9-3.5 0-1.4-1.5-7.7-3.4-14-1.9-6.3-5.5-17.2-8-24.3-4.3-11.8-4.8-12.7-6.8-12.1-2.1 0.6-2.2 0.5-0.5-0.7 1.1-0.8 1.6-2.1 1.3-3.2-0.4-0.9-1.1-1.7-1.6-1.7-0.5 0-0.8-0.4-0.5-1 0.3-0.6 0.1-1.8-0.5-2.8-0.7-1.3-0.9-1.4-0.9-0.2 0 1.3-0.2 1.3-1.6 0-0.9-0.8-1.6-1.8-1.5-2.3 0-0.4 0.7-0.5 1.5-0.2 0.8 0.3 1.5 0.4 1.5 0.2 0-0.1-3.7-7.8-8.3-17.2-4.6-9.4-11.2-21.7-14.7-27.5-3.4-5.8-10.4-16.8-15.6-24.5-5.1-7.7-13.1-18.9-17.9-25-4.7-6.1-11.2-13.9-14.4-17.5-3.2-3.6-12.1-12.8-19.7-20.5-7.7-7.7-16.6-16.3-19.9-19-3.3-2.8-7-5.9-8.1-7-1.2-1.1-4.3-4-7-6.4-2.7-2.5-9.9-8.1-15.9-12.6-6-4.6-16.2-11.6-22.5-15.7-6.3-4.2-16.7-10.4-23-13.9-6.4-3.5-14-7.6-17-9.1-3-1.5-7.8-3.8-10.5-5-2.8-1.2-5.8-2.1-6.8-2-0.9 0.1-1.5-0.1-1.2-0.6 0.2-0.4-3.7-2.4-8.8-4.6-5.1-2.1-11.2-4.8-13.7-5.9-2.5-1.2-5-2-5.5-1.9-0.5 0.2-1.2-0.1-1.5-0.6-0.3-0.6-6.8-3.1-14.5-5.6-7.7-2.6-19-6-25-7.6-6-1.7-17.5-4.3-25.5-5.9-8-1.6-20.1-3.6-27-4.5-6.9-0.9-16.5-2.2-21.5-2.9-5.5-0.7-21-1.2-39.5-1.1-18 0-34.4 0.5-40 1.2-5.2 0.7-14.7 1.9-21 2.6-6.3 0.8-17.4 2.6-24.5 4.1-7.1 1.4-17.3 3.7-22.5 5.1-5.2 1.4-15.1 4.1-22 6.1-6.9 2-17.2 5.3-23 7.5-5.8 2.2-14.8 5.8-20 8-5.2 2.2-14.2 6.2-20 9-5.8 2.7-16.6 8.4-24 12.5-7.4 4.2-17.6 10.2-22.5 13.4-4.9 3.3-9.9 6.5-10.9 7.1-1 0.7-4.6 3.3-8 5.7-3.4 2.5-7.6 5.6-9.5 7-1.8 1.4-5.7 4.4-8.6 6.6-2.8 2.2-8.2 6.7-12 10-3.8 3.3-8 7.1-9.4 8.3-1.4 1.3-4.6 4.3-7.1 6.7-2.5 2.3-9 8.9-14.6 14.6-5.5 5.7-14.9 16.2-20.8 23.4-5.8 7.2-15.2 19.3-20.8 27-5.6 7.7-12.1 17.3-14.5 21.2-2.4 4-4.3 8-4.3 8.8 0 0.8-0.5 1.5-1 1.5-0.5 0-1 0.7-1 1.5 0 0.8-0.4 1.6-0.9 1.7-0.5 0.2-4.2 6.8-8.4 14.8-4.1 8-10.2 20.8-13.5 28.5-3.2 7.7-6.9 16.7-8.1 20-1.3 3.3-4.3 12.1-6.7 19.5-2.5 7.4-6 19.4-7.8 26.5-1.8 7.1-3.8 15.2-4.4 18-0.6 2.7-2 9.9-3.1 16-1.1 6.1-2.7 16.4-3.5 23-0.8 6.6-2 19.4-2.7 28.5-0.7 9.9-0.9 25.1-0.5 38 0.3 11.8 1 25.8 1.6 31 0.5 5.2 1.2 11.7 1.5 14.5 0.3 2.7 1.5 10.4 2.6 17 1.1 6.6 2.9 16.3 4.1 21.5 1.1 5.2 2.3 10.8 2.7 12.4 0.3 1.5 0.9 3 1.3 3.2 0.5 0.2 0.8 1.5 0.8 2.9 0 1.4 1.6 8 3.6 14.7 1.9 6.8 5.8 18.4 8.6 25.8 2.8 7.4 7.2 18.6 9.9 24.7 2.7 6.2 4.8 11.5 4.6 11.8-0.1 0.3-1.8-3-3.9-7.2-2-4.3-5.9-13.4-8.6-20.3-2.7-6.9-6.8-17.9-9-24.5-2.3-6.6-6.1-19.9-8.6-29.5-2.4-9.6-5.6-24-7-32-1.4-8-3.3-20.1-4.2-27-1-8-1.8-23.3-2.1-42.5-0.3-18.7-0.1-35.5 0.7-44.5 0.6-8 1.8-19 2.5-24.5 0.8-5.5 2.4-15.2 3.5-21.5 1.2-6.3 3.7-17.8 5.6-25.5 1.9-7.7 5.3-19.9 7.6-27 2.2-7.1 6.8-20.2 10.3-29 3.4-8.8 9.4-22.5 13.2-30.5 3.8-8 10.4-20.4 14.5-27.5 4.1-7.1 11-18.4 15.3-25 4.3-6.6 11.2-16.5 15.3-22 4.2-5.5 10.9-14.1 15.1-19 4.1-4.9 16.5-18 27.5-29 11.1-11 24.6-23.6 30.1-28.1 5.5-4.4 14.4-11.2 19.7-15.2 5.4-4 14.2-10.1 19.5-13.5 5.4-3.5 15.4-9.6 22.3-13.6 6.9-3.9 18.4-10 25.5-13.5 7.1-3.5 18.6-8.7 25.5-11.6 6.9-2.9 19.7-7.7 28.5-10.6 8.8-2.9 22.1-6.9 29.5-8.8 7.4-1.9 18.2-4.4 24-5.5 5.8-1.1 16.1-3 23-4 6.9-1.1 18.6-2.5 26-3.1 7.4-0.6 16-1.2 19-1.4 3-0.2 15.9-0.2 28.5 0zm-141.6 497.9l2 3.5c1.1 1.9 2.3 4.3 2.6 5.3 0.3 0.9 0.9 1.7 1.5 1.7 0.6 0 1 0.5 1 1 0 0.5 3 5.2 6.6 10.3 3.7 5 7.3 9.9 8 10.7 0.7 0.8 3.5 3.8 6.3 6.5 2.7 2.8 6.1 5.8 7.5 6.8 1.4 0.9 2.6 2.3 2.6 3 0.1 0.6 2.8 3.2 6 5.7 3.3 2.5 7.2 5.5 8.8 6.7 1.5 1.2 4.3 3.1 6.2 4.1 1.9 1.1 5.7 3.2 8.5 4.7 2.7 1.6 5.7 3.2 6.5 3.6 0.8 0.5 5.3 2.4 10 4.3 4.7 1.8 10.7 4.1 13.5 4.9 2.7 0.9 6.4 1.8 8 2.1 1.6 0.2 5.7 1 9 1.7 3.6 0.8 13.2 1.3 24 1.3 14.7 0.1 20.1-0.3 29.5-2.2 6.3-1.2 14-3 17-3.9 3-0.9 5.7-1.7 6-1.8 0.3 0 3.3-1.4 6.8-3 4-1.9 6.1-3.5 5.8-4.2-0.4-0.8 0.4-1.6 1.6-2 1.3-0.4 3.1-0.6 4-0.5 1 0.1 1.8-0.1 1.8-0.5 0-0.5 1.5-1.6 3.5-2.5 1.9-1 6.4-4.3 10-7.3 3.6-3 6.8-5.3 7.2-5 0.5 0.3-2 3.3-5.5 6.5-3.4 3.3-6.9 6-7.7 6-0.8 0-1.5 0.5-1.5 1 0 0.5-0.5 1-1 1-0.5 0-2.9 1.3-5.3 2.9-2.3 1.5-7.3 4.4-11.2 6.3-3.9 1.9-10.1 4.6-14 6-3.9 1.4-11.3 3.7-16.5 5.2-5.2 1.4-15.1 3.2-22 3.8-9.6 0.9-15.6 0.9-26 0-7.4-0.6-17.9-2.3-23.3-3.7-5.3-1.4-15.6-4.6-22.8-7.2-7.1-2.7-12.7-5.1-12.3-5.5 0.4-0.5-0.5-0.8-1.9-0.8-1.5 0-2.9-0.5-3.2-1-0.3-0.5-2-1.7-3.8-2.6-1.7-0.9-4-1.3-5-1-0.9 0.3-2.7-0.2-4-1.2-1.2-1.1-3.4-2.2-5-2.5-1.5-0.4-2.7-1.2-2.7-1.7 0-0.5-0.8-1-1.8-1-1.5 0.1-1.5-0.1-0.2-1.5 1.3-1.4 1.3-1.6-0.3-1.5-0.9 0-2.2-1-2.8-2.2-0.9-1.7-0.9-2.4 0-2.5 0.6-0.2-0.1-1.7-1.7-3.5-1.5-1.7-3.6-4.1-4.7-5.2-1.1-1.2-4.7-5.5-8-9.6-3.4-4.1-8.4-11.4-11.3-16.2-2.9-4.9-5.2-9.4-5.2-10 0.1-0.7 1.3 0.6 2.8 3 1.5 2.3 2.8 4.1 3 4 0.1-0.2-1.1-3.2-2.8-6.8-1.6-3.6-3.2-8.1-3.5-10zm-212.1 225c1 1.1 6.4 7.2 11.9 13.5 5.6 6.3 16.3 17.5 23.9 24.9 7.6 7.4 17.9 16.8 22.9 21 4.9 4.1 14.1 11.3 20.5 16 6.3 4.6 17.1 12.2 24 16.7 6.8 4.5 18.8 11.7 26.5 16 7.7 4.3 20.9 11.1 29.5 15 8.5 3.9 22 9.7 30 12.7 7.9 3.1 17.4 6.3 21 7.3 3.5 0.9 6.9 2 7.5 2.4 0.5 0.4 7.3 2.4 15 4.5 7.7 2 15.9 3.9 18.2 4.1 2.4 0.2 5.1 0.8 6 1.3 1 0.5 6.9 1.9 13.3 3 6.3 1.2 16.9 2.8 23.5 3.6 6.6 0.8 19.8 1.9 29.5 2.6 12.7 0.8 24.5 0.8 43.5 0 14.3-0.6 26.2-0.9 26.5-0.7 0.2 0.3-4.9 0.9-11.5 1.3-6.6 0.4-24.2 0.8-39 0.7-18.7 0-32-0.5-43-1.8-8.8-0.9-22.4-2.8-30.3-4.2-7.8-1.3-22-4.4-31.5-6.8-9.5-2.4-23.8-6.6-31.7-9.4-8-2.7-19.3-6.8-25-9.1-5.8-2.4-16.4-7-23.5-10.3-7.2-3.4-17.5-8.6-23-11.6-5.5-3-13.2-7.2-17-9.5-3.9-2.2-12.9-7.9-20-12.7-7.2-4.8-17.1-11.8-22-15.5-5-3.8-14.4-11.4-21-17.1-6.6-5.6-18.4-16.7-26.2-24.5-7.8-7.9-17.9-18.7-22.3-23.9-4.4-5.2-8-10-8-10.5 0-0.5 0.8-0.1 1.8 1z"/>
		<path id="Path 5" class="s0" d="m514 372.8c0 0.4 2.8 1.1 6.2 1.5 3.5 0.5 10.1 2 14.8 3.3 4.7 1.3 8.6 2.3 8.8 2.2 0.1-0.2-1.5-1-3.5-2-2.1-0.9-7.4-2.3-11.8-3.1-4.4-0.9-9.5-1.8-11.3-2.1-1.8-0.3-3.3-0.2-3.2 0.2z"/>
		<path id="Path 6" class="s1" d="m457.5 615.5c0.3 0.8 0.9 1.5 1.5 1.5 0.6 0 0.7 0.5 0.3 1.2-0.6 0.9-0.2 1 1.2 0.6 1.1-0.3 3.9-0.1 6.3 0.5 2.4 0.7 3.9 1.6 3.5 2.1-0.4 0.5 0.2 0.6 1.5 0.2 1.2-0.3 2.2-0.2 2.2 0.4 0 0.5 0.9 0.8 2 0.5 1.1-0.3 2.6-0.1 3.3 0.4 0.6 0.6 2.1 1 3.2 1.1 1.1 0 5.6 0.3 10 0.6 4.4 0.3 7.8 0.4 7.5 0.1-0.3-0.3-2.8-0.8-5.5-1.1-2.8-0.3-6.6-1-8.5-1.5-2.6-0.8-3.7-0.7-4.3 0.2-0.5 0.9-0.9 0.9-1.5-0.1-0.4-0.6-3.6-1.9-7.2-2.8-3.6-0.8-6.7-1.9-7-2.3-0.3-0.4-2.1-1.3-4-2-1.9-0.6-3.8-1.1-4.2-1.1-0.4 0-0.5 0.7-0.3 1.5z"/>
		<path id="Path 7" class="s2" d="m439 608.8c-0.1 0.4 2.8 2.2 6.2 3.9 3.5 1.8 7.8 3.6 9.6 4 2 0.5 3.2 0.4 3.2-0.2 0-0.5-0.5-1.7-1-2.5-0.6-1-2.3-1.4-5.5-1.2-2.5 0.1-4.5-0.2-4.5-0.8 0-0.5-1.4-1.7-3-2.5-1.6-0.8-3.4-1.5-4-1.5-0.6 0-1 0.3-1 0.8z"/>
	</g>
</svg>